<svg width="126" height="34" viewBox="0 0 126 34" fill="none" xmlns="http://www.w3.org/2000/svg">
<path d="M62.83 15.2359H65.465V21.5359H68.27V15.2359H70.82V12.7159H62.83V15.2359ZM111.025 15.8239H107.71V12.7159H104.905V21.5359H107.71V18.3439H111.025V21.5359H113.83V12.7159H111.025V15.8239ZM120.97 16.9159L124.795 12.7159H121.31L118.42 16.2439V12.7159H115.615V21.5359H118.42V17.9239L121.565 21.5359H125.05L120.97 16.9159ZM88.415 13.0519C87.31 13.0519 86.29 13.4719 85.695 14.3959C85.865 11.8759 87.565 11.5399 91.05 11.5399V8.93591C86.545 8.93591 82.89 9.85991 82.89 15.8239C82.89 20.1079 85.27 21.7039 87.735 21.7039C90.285 21.7039 92.24 19.9399 92.24 17.1679C92.325 14.7319 90.625 13.0519 88.415 13.0519ZM87.65 19.4359C86.545 19.4359 85.78 18.6799 85.78 17.4199C85.78 16.1599 86.63 15.4039 87.65 15.4039C88.755 15.4039 89.52 16.1599 89.52 17.4199C89.52 18.6799 88.755 19.3519 87.65 19.4359ZM58.835 13.7239C58.24 13.0519 57.39 12.5479 56.285 12.5479C54.075 12.5479 52.205 14.3959 52.205 17.1679C52.205 19.8559 53.99 21.7879 56.285 21.7879C57.39 21.7879 58.24 21.3679 58.835 20.6119V21.5359H61.64V12.7159H58.92V13.7239H58.835ZM56.88 19.1839C55.775 19.1839 55.01 18.4279 55.01 17.1679C55.01 15.9079 55.86 15.1519 56.88 15.1519C57.9 15.1519 58.75 15.9079 58.75 17.1679C58.75 18.4279 57.9 19.1839 56.88 19.1839ZM49.74 12.7159H42.77L41.92 17.8399C41.835 18.4279 41.665 18.7639 41.495 19.0159H39.88V23.7199H42.685V21.5359H48.635V23.7199H51.44V19.0159H49.74V12.7159ZM46.935 18.9319H44.3C44.47 18.6799 44.555 18.3439 44.64 17.9239L45.065 15.2359H46.935V18.9319ZM78.555 13.7239C77.96 13.0519 77.11 12.5479 76.005 12.5479C73.795 12.5479 72.01 14.3959 72.01 17.1679C72.01 19.8559 73.795 21.7879 76.09 21.7879C77.195 21.7879 78.045 21.3679 78.64 20.6119V21.5359H81.445V12.7159H78.64V13.7239H78.555ZM76.685 19.1839C75.58 19.1839 74.815 18.4279 74.815 17.1679C74.815 15.9079 75.665 15.1519 76.685 15.1519C77.79 15.1519 78.555 15.9079 78.555 17.1679C78.555 18.4279 77.705 19.1839 76.685 19.1839ZM100.4 13.7239C99.805 13.0519 98.955 12.5479 97.85 12.5479C95.64 12.5479 93.77 14.3959 93.77 17.1679C93.77 19.8559 95.555 21.7879 97.85 21.7879C98.955 21.7879 99.805 21.3679 100.4 20.6119V21.5359H103.205V12.7159H100.4V13.7239ZM98.445 19.1839C97.34 19.1839 96.575 18.4279 96.575 17.1679C96.575 15.9079 97.425 15.1519 98.445 15.1519C99.55 15.1519 100.315 15.9079 100.315 17.1679C100.315 18.4279 99.55 19.1839 98.445 19.1839ZM10.64 18.0919C10.64 18.3439 10.555 18.5119 10.555 18.7639C10.555 18.8479 10.555 18.9319 10.47 19.0159H13.955V12.9679H11.405L10.64 18.0919ZM23.73 15.0679C22.625 15.0679 21.86 15.8239 21.86 17.0839C21.86 18.3439 22.71 19.0999 23.73 19.0999C24.835 19.0999 25.6 18.3439 25.6 17.0839C25.6 15.8239 24.835 15.0679 23.73 15.0679Z" fill="#CACACA"/>
<path d="M27.385 0.199951H6.9C3.16 0.199951 0.0999985 3.22395 0.0999985 6.91995V33.7999H27.385C31.125 33.7999 34.185 30.7759 34.185 27.08V6.91995C34.185 3.22395 31.125 0.199951 27.385 0.199951ZM18.375 23.7199H15.57V21.5359H8.685V23.7199H5.88V18.9319H7.495C7.665 18.68 7.835 18.344 7.92 17.756L9.11 10.196H16.76V18.848H18.375V23.7199ZM28.405 21.5359H25.6V20.528C25.005 21.2 24.24 21.704 23.05 21.704C20.755 21.704 18.97 19.772 18.97 17.084C18.97 14.312 20.755 12.464 23.05 12.464C24.155 12.464 25.005 12.968 25.6 13.64V12.632H28.32V21.5359H28.405Z" fill="#CACACA"/>
</svg>
