<svg width="247" height="40" viewBox="0 0 247 40" fill="none" xmlns="http://www.w3.org/2000/svg">
<path d="M19.2676 6.89795C10.2179 12.2192 6.05581 15.9189 0.000488282 23.5927C6.93785 32.9769 12.1351 36.8118 24.784 39.9675C22.4722 37.7948 17.4768 31.7501 15.9898 24.9522C14.5028 18.1544 17.5554 10.0836 19.2676 6.89795Z" fill="#045599"/>
<path d="M80.0068 16.9146C72.3313 6.67816 66.7534 3.17892 55.0635 0C57.5019 2.5392 63.2131 9.18207 64.0775 15.855C64.9969 22.9527 62.4719 30.2104 60.8196 33.2695C69.2784 28.4102 73.5311 24.9113 80.0068 16.9146Z" fill="#F47F1F"/>
<path d="M47.1889 29.9705C50.0348 18.8585 49.6349 13.5192 43.0516 5.45825L53.1449 6.29799C57.9325 10.777 58.9132 14.6102 58.5613 22.5528L47.1889 29.9705Z" fill="#F47F1F"/>
<path d="M45.0707 29.0556C39.2203 30.8265 33.143 29.6044 27.5224 25.0919L24.8042 32.1897C29.3126 37.4088 32.573 39.3315 40.4138 39.9872C47.7089 40.2871 53.7649 35.2487 55.9636 30.7101C58.3628 25.7579 59.5171 21.65 58.4617 15.175C55.5846 22.5026 51.5529 27.0364 45.0707 29.0556Z" fill="#4478BB"/>
<path d="M36.6346 10.3458C43.0228 6.3482 49.9896 6.07973 56.6812 10.0328C53.1922 4.56977 48.8905 1.3577 43.6299 0.369823C37.6453 -0.769109 32.0901 0.869207 26.981 5.31427C22.584 9.13985 19.8076 17.0662 21.1792 23.9684C21.9882 28.4919 24.123 32.7056 29.7592 37.0042C28.0136 32.7084 27.8005 28.4908 27.8005 26.7275C28.0623 19.9521 31.2334 13.8943 36.6346 10.3458Z" fill="#045599"/>
<path d="M97.7382 4.18906L97.7382 6.16892L94.2877 6.16892C93.9013 6.16892 93.5972 6.1905 93.3754 6.23365C93.1572 6.27681 92.9819 6.36672 92.8495 6.50339C92.7171 6.64006 92.6313 6.81089 92.5919 7.01589C92.5526 7.21729 92.5329 7.50141 92.5329 7.86825L92.5329 9.29246L97.5021 9.29246L97.5021 11.3209L92.5329 11.3209L92.5329 12.9501C92.5329 13.1946 92.5401 13.3996 92.5544 13.5651C92.5723 13.7269 92.6062 13.8762 92.6563 14.0128C92.7064 14.1459 92.769 14.252 92.8441 14.3311C92.9229 14.4066 93.0302 14.4714 93.1661 14.5253C93.3021 14.5793 93.4577 14.6152 93.633 14.6332C93.8119 14.6512 94.0301 14.6602 94.2877 14.6602L97.7382 14.6602L97.7382 16.6347C96.4181 16.6994 95.2858 16.7318 94.3413 16.7318C93.955 16.7318 93.6348 16.7264 93.3808 16.7156C93.1303 16.7084 92.837 16.6832 92.5007 16.6401C92.1644 16.5933 91.8889 16.5304 91.6743 16.4512C91.4596 16.3721 91.236 16.257 91.0035 16.106C90.771 15.9549 90.5885 15.7733 90.4561 15.5611C90.3238 15.3453 90.2147 15.0774 90.1288 14.7573C90.0429 14.4372 90 14.0722 90 13.6622L90 7.16154C90 6.75155 90.0429 6.3865 90.1288 6.06642C90.2147 5.74633 90.3238 5.48019 90.4561 5.268C90.5885 5.05221 90.771 4.87059 91.0035 4.72313C91.2396 4.57208 91.4632 4.457 91.6743 4.37787C91.8889 4.29515 92.1644 4.23222 92.5007 4.18906C92.837 4.1459 93.1303 4.12073 93.3808 4.11353C93.6312 4.10274 93.9514 4.09735 94.3413 4.09735C95.3824 4.09735 96.5147 4.12792 97.7382 4.18906Z" fill="#045599"/>
<path d="M103.945 5.65103L107.916 13.3493L107.916 4.12972L110.197 4.12972L110.197 14.9137C110.197 16.1905 109.685 16.8289 108.662 16.8289C108.19 16.8289 107.791 16.7066 107.465 16.462C107.143 16.2175 106.823 15.7877 106.505 15.1727L102.539 7.44746L102.539 16.6994L100.258 16.6994L100.258 5.90997C100.258 4.63682 100.77 4.00024 101.793 4.00024C102.24 4.00024 102.634 4.12792 102.974 4.38327C103.313 4.63502 103.637 5.05761 103.945 5.65103Z" fill="#045599"/>
<path d="M123.037 4.12972L119.469 15.1295C119.276 15.7265 119.022 16.1599 118.707 16.4297C118.396 16.6958 118.007 16.8289 117.542 16.8289C117.066 16.8289 116.675 16.6994 116.367 16.4404C116.063 16.1779 115.811 15.7409 115.61 15.1295L112.026 4.12972L114.73 4.12972L117.564 13.8294L120.429 4.12972L123.037 4.12972Z" fill="#045599"/>
<path d="M130.814 16.6724C130.32 16.7767 129.748 16.8289 129.097 16.8289C128.446 16.8289 127.872 16.7767 127.374 16.6724C126.877 16.5681 126.442 16.4027 126.07 16.1761C125.698 15.9459 125.387 15.6654 125.137 15.3345C124.886 15.0001 124.682 14.5883 124.525 14.0991C124.371 13.6064 124.26 13.0652 124.192 12.4753C124.128 11.8819 124.095 11.195 124.095 10.4146C124.095 9.63412 124.128 8.94899 124.192 8.35917C124.26 7.76575 124.371 7.22448 124.525 6.73536C124.682 6.24265 124.886 5.83085 125.137 5.49997C125.387 5.1655 125.698 4.88498 126.07 4.6584C126.442 4.42822 126.877 4.26099 127.374 4.15669C127.872 4.05239 128.446 4.00024 129.097 4.00024C129.748 4.00024 130.32 4.05239 130.814 4.15669C131.311 4.26099 131.746 4.42822 132.118 4.6584C132.49 4.88498 132.801 5.1655 133.052 5.49997C133.302 5.83085 133.504 6.24085 133.658 6.72997C133.816 7.21909 133.927 7.76036 133.991 8.35378C134.059 8.94719 134.093 9.63412 134.093 10.4146C134.093 11.195 134.059 11.8819 133.991 12.4753C133.927 13.0688 133.816 13.61 133.658 14.0991C133.504 14.5883 133.302 15.0001 133.052 15.3345C132.801 15.6654 132.49 15.9459 132.118 16.1761C131.746 16.4027 131.311 16.5681 130.814 16.6724ZM128.389 14.6548C128.6 14.7016 128.836 14.7249 129.097 14.7249C129.358 14.7249 129.594 14.7016 129.805 14.6548C130.016 14.608 130.201 14.5505 130.358 14.4822C130.515 14.4138 130.655 14.3113 130.777 14.1747C130.898 14.0344 130.998 13.9013 131.077 13.7755C131.159 13.6496 131.229 13.4788 131.286 13.263C131.344 13.0436 131.386 12.8494 131.415 12.6803C131.447 12.5077 131.471 12.2775 131.485 11.9898C131.499 11.6985 131.508 11.4503 131.512 11.2453C131.515 11.0367 131.517 10.7598 131.517 10.4146C131.517 10.0693 131.515 9.79416 131.512 9.58916C131.508 9.38057 131.499 9.13241 131.485 8.84469C131.471 8.55338 131.447 8.32321 131.415 8.15417C131.386 7.98154 131.344 7.78553 131.286 7.56615C131.229 7.34676 131.159 7.17413 131.077 7.04826C130.998 6.92238 130.898 6.79111 130.777 6.65444C130.655 6.51778 130.515 6.41528 130.358 6.34694C130.201 6.27501 130.016 6.21567 129.805 6.16892C129.594 6.12216 129.358 6.09879 129.097 6.09879C128.836 6.09879 128.6 6.12216 128.389 6.16892C128.177 6.21567 127.991 6.27501 127.83 6.34694C127.673 6.41528 127.533 6.51778 127.412 6.65444C127.294 6.79111 127.194 6.92238 127.111 7.04826C127.029 7.17413 126.959 7.34676 126.902 7.56615C126.845 7.78553 126.8 7.98154 126.768 8.15417C126.739 8.32321 126.718 8.55338 126.703 8.84469C126.689 9.13241 126.68 9.38057 126.677 9.58916C126.673 9.79416 126.671 10.0693 126.671 10.4146C126.671 10.7598 126.673 11.0367 126.677 11.2453C126.68 11.4503 126.689 11.6985 126.703 11.9898C126.718 12.2775 126.739 12.5077 126.768 12.6803C126.8 12.8494 126.845 13.0436 126.902 13.263C126.959 13.4788 127.029 13.6496 127.111 13.7755C127.194 13.9013 127.294 14.0344 127.412 14.1747C127.533 14.3113 127.673 14.4138 127.83 14.4822C127.991 14.5505 128.177 14.608 128.389 14.6548Z" fill="#045599"/>
<path d="M141.458 11.8549L141.458 16.6994L138.92 16.6994L138.92 11.8549L134.895 4.12972L137.627 4.12972L140.208 9.34101L142.859 4.12972L145.494 4.12972L141.458 11.8549Z" fill="#045599"/>
<path d="M151.55 6.07721C151.367 6.07721 151.212 6.07901 151.083 6.0826C150.958 6.0862 150.799 6.09699 150.605 6.11497C150.416 6.13295 150.255 6.15993 150.122 6.19589C149.99 6.22826 149.849 6.27681 149.698 6.34155C149.548 6.40269 149.427 6.47822 149.334 6.56813C149.241 6.65804 149.164 6.77313 149.103 6.91339C149.042 7.05005 149.012 7.2047 149.012 7.37733C149.012 7.57514 149.031 7.74957 149.071 7.90062C149.113 8.05167 149.178 8.18294 149.264 8.29443C149.353 8.40592 149.453 8.50303 149.564 8.58575C149.679 8.66487 149.82 8.7386 149.988 8.80693C150.16 8.87167 150.332 8.92921 150.503 8.97956C150.675 9.02991 150.881 9.08746 151.121 9.15219C151.149 9.15939 151.171 9.16478 151.185 9.16838C151.199 9.17197 151.219 9.17737 151.244 9.18456C151.269 9.19176 151.29 9.19715 151.308 9.20075C151.927 9.36978 152.442 9.5568 152.854 9.7618C153.269 9.9632 153.621 10.215 153.911 10.5171C154.201 10.8192 154.41 11.177 154.539 11.5906C154.668 12.0006 154.732 12.4897 154.732 13.058C154.732 13.7413 154.63 14.3275 154.426 14.8166C154.226 15.3022 153.924 15.6924 153.519 15.9873C153.115 16.2786 152.632 16.4926 152.07 16.6293C151.509 16.7623 150.849 16.8289 150.09 16.8289C148.877 16.8289 147.674 16.6994 146.479 16.4404L146.725 14.4282C147.999 14.6152 149.09 14.7087 149.999 14.7087C150.35 14.7087 150.646 14.6872 150.89 14.644C151.133 14.5973 151.351 14.5181 151.544 14.4066C151.738 14.2916 151.881 14.1315 151.974 13.9265C152.07 13.7179 152.119 13.459 152.119 13.1497C152.119 12.9878 152.097 12.8386 152.054 12.7019C152.011 12.5652 151.968 12.4502 151.925 12.3567C151.883 12.2631 151.795 12.1696 151.663 12.0761C151.534 11.979 151.437 11.9071 151.373 11.8603C151.312 11.8136 151.18 11.7524 150.976 11.6769C150.775 11.5978 150.641 11.5474 150.573 11.5259C150.505 11.5043 150.344 11.4539 150.09 11.3748C150.069 11.3676 150.053 11.3622 150.042 11.3586C149.691 11.2507 149.389 11.15 149.135 11.0565C148.881 10.963 148.622 10.8533 148.357 10.7274C148.096 10.6016 147.874 10.4721 147.691 10.339C147.513 10.2024 147.341 10.0423 147.176 9.8589C147.015 9.67548 146.886 9.47588 146.79 9.26009C146.693 9.0443 146.616 8.79794 146.559 8.52101C146.505 8.24049 146.479 7.93299 146.479 7.59852C146.479 6.92598 146.575 6.35593 146.768 5.88839C146.962 5.42085 147.253 5.05041 147.643 4.77708C148.037 4.50015 148.5 4.30235 149.033 4.18366C149.57 4.06138 150.21 4.00024 150.954 4.00024C152.135 4.00024 153.328 4.13152 154.533 4.39406L154.303 6.35234C153.154 6.16892 152.237 6.07721 151.55 6.07721Z" fill="#045599"/>
<path d="M171.35 4.12972L167.782 15.1295C167.589 15.7265 167.335 16.1599 167.02 16.4297C166.709 16.6958 166.32 16.8289 165.855 16.8289C165.379 16.8289 164.988 16.6994 164.68 16.4404C164.376 16.1779 164.124 15.7409 163.923 15.1295L160.339 4.12972L163.043 4.12972L165.877 13.8294L168.742 4.12972L171.35 4.12972Z" fill="#045599"/>
<path d="M173.155 16.6994L173.155 4.12972L175.699 4.12972L175.699 16.6994L173.155 16.6994Z" fill="#045599"/>
<path d="M182.955 6.07721C182.773 6.07721 182.617 6.07901 182.488 6.0826C182.363 6.0862 182.204 6.09699 182.01 6.11497C181.821 6.13295 181.66 6.15993 181.528 6.19589C181.395 6.22826 181.254 6.27681 181.104 6.34155C180.953 6.40269 180.832 6.47822 180.739 6.56813C180.646 6.65804 180.569 6.77313 180.508 6.91339C180.447 7.05005 180.417 7.2047 180.417 7.37733C180.417 7.57514 180.436 7.74957 180.476 7.90062C180.519 8.05167 180.583 8.18294 180.669 8.29443C180.758 8.40592 180.859 8.50303 180.969 8.58575C181.084 8.66487 181.225 8.7386 181.393 8.80693C181.565 8.87167 181.737 8.92921 181.909 8.97956C182.08 9.02991 182.286 9.08746 182.526 9.15219C182.554 9.15939 182.576 9.16478 182.59 9.16838C182.604 9.17197 182.624 9.17737 182.649 9.18456C182.674 9.19176 182.696 9.19715 182.713 9.20075C183.332 9.36978 183.848 9.5568 184.259 9.7618C184.674 9.9632 185.026 10.215 185.316 10.5171C185.606 10.8192 185.815 11.177 185.944 11.5906C186.073 12.0006 186.137 12.4897 186.137 13.058C186.137 13.7413 186.035 14.3275 185.831 14.8166C185.631 15.3022 185.329 15.6924 184.924 15.9873C184.52 16.2786 184.037 16.4926 183.476 16.6293C182.914 16.7623 182.254 16.8289 181.495 16.8289C180.283 16.8289 179.079 16.6994 177.884 16.4404L178.131 14.4282C179.404 14.6152 180.495 14.7087 181.404 14.7087C181.755 14.7087 182.052 14.6872 182.295 14.644C182.538 14.5973 182.756 14.5181 182.95 14.4066C183.143 14.2916 183.286 14.1315 183.379 13.9265C183.476 13.7179 183.524 13.459 183.524 13.1497C183.524 12.9878 183.502 12.8386 183.459 12.7019C183.416 12.5652 183.374 12.4502 183.331 12.3567C183.288 12.2631 183.2 12.1696 183.068 12.0761C182.939 11.979 182.842 11.9071 182.778 11.8603C182.717 11.8136 182.585 11.7524 182.381 11.6769C182.18 11.5978 182.046 11.5474 181.978 11.5259C181.91 11.5043 181.749 11.4539 181.495 11.3748C181.474 11.3676 181.458 11.3622 181.447 11.3586C181.096 11.2507 180.794 11.15 180.54 11.0565C180.286 10.963 180.027 10.8533 179.762 10.7274C179.501 10.6016 179.279 10.4721 179.097 10.339C178.918 10.2024 178.746 10.0423 178.581 9.8589C178.42 9.67548 178.292 9.47588 178.195 9.26009C178.098 9.0443 178.022 8.79794 177.964 8.52101C177.911 8.24049 177.884 7.93299 177.884 7.59852C177.884 6.92598 177.98 6.35593 178.174 5.88839C178.367 5.42085 178.658 5.05041 179.048 4.77708C179.442 4.50015 179.905 4.30235 180.438 4.18366C180.975 4.06138 181.615 4.00024 182.359 4.00024C183.54 4.00024 184.733 4.13152 185.939 4.39406L185.708 6.35234C184.559 6.16892 183.642 6.07721 182.955 6.07721Z" fill="#045599"/>
<path d="M188.264 16.6994L188.264 4.12972L190.807 4.12972L190.807 16.6994L188.264 16.6994Z" fill="#045599"/>
<path d="M199.877 16.6724C199.384 16.7767 198.811 16.8289 198.16 16.8289C197.509 16.8289 196.935 16.7767 196.438 16.6724C195.94 16.5681 195.506 16.4027 195.134 16.1761C194.762 15.9459 194.45 15.6654 194.2 15.3345C193.95 15.0001 193.746 14.5883 193.588 14.0991C193.434 13.6064 193.323 13.0652 193.255 12.4753C193.191 11.8819 193.159 11.195 193.159 10.4146C193.159 9.63412 193.191 8.94899 193.255 8.35917C193.323 7.76575 193.434 7.22448 193.588 6.73536C193.746 6.24265 193.95 5.83085 194.2 5.49997C194.45 5.1655 194.762 4.88498 195.134 4.6584C195.506 4.42822 195.94 4.26099 196.438 4.15669C196.935 4.05239 197.509 4.00024 198.16 4.00024C198.811 4.00024 199.384 4.05239 199.877 4.15669C200.375 4.26099 200.809 4.42822 201.182 4.6584C201.554 4.88498 201.865 5.1655 202.115 5.49997C202.366 5.83085 202.568 6.24085 202.722 6.72997C202.879 7.21909 202.99 7.76036 203.054 8.35378C203.122 8.94719 203.156 9.63412 203.156 10.4146C203.156 11.195 203.122 11.8819 203.054 12.4753C202.99 13.0688 202.879 13.61 202.722 14.0991C202.568 14.5883 202.366 15.0001 202.115 15.3345C201.865 15.6654 201.554 15.9459 201.182 16.1761C200.809 16.4027 200.375 16.5681 199.877 16.6724ZM197.452 14.6548C197.663 14.7016 197.899 14.7249 198.16 14.7249C198.421 14.7249 198.658 14.7016 198.869 14.6548C199.08 14.608 199.264 14.5505 199.421 14.4822C199.579 14.4138 199.718 14.3113 199.84 14.1747C199.962 14.0344 200.062 13.9013 200.14 13.7755C200.223 13.6496 200.292 13.4788 200.35 13.263C200.407 13.0436 200.45 12.8494 200.479 12.6803C200.511 12.5077 200.534 12.2775 200.548 11.9898C200.563 11.6985 200.572 11.4503 200.575 11.2453C200.579 11.0367 200.58 10.7598 200.58 10.4146C200.58 10.0693 200.579 9.79416 200.575 9.58916C200.572 9.38057 200.563 9.13241 200.548 8.84469C200.534 8.55338 200.511 8.32321 200.479 8.15417C200.45 7.98154 200.407 7.78553 200.35 7.56615C200.292 7.34676 200.223 7.17413 200.14 7.04826C200.062 6.92238 199.962 6.79111 199.84 6.65444C199.718 6.51778 199.579 6.41528 199.421 6.34694C199.264 6.27501 199.08 6.21567 198.869 6.16892C198.658 6.12216 198.421 6.09879 198.16 6.09879C197.899 6.09879 197.663 6.12216 197.452 6.16892C197.241 6.21567 197.055 6.27501 196.894 6.34694C196.736 6.41528 196.597 6.51778 196.475 6.65444C196.357 6.79111 196.257 6.92238 196.175 7.04826C196.092 7.17413 196.023 7.34676 195.965 7.56615C195.908 7.78553 195.863 7.98154 195.831 8.15417C195.803 8.32321 195.781 8.55338 195.767 8.84469C195.753 9.13241 195.744 9.38057 195.74 9.58916C195.736 9.79416 195.735 10.0693 195.735 10.4146C195.735 10.7598 195.736 11.0367 195.74 11.2453C195.744 11.4503 195.753 11.6985 195.767 11.9898C195.781 12.2775 195.803 12.5077 195.831 12.6803C195.863 12.8494 195.908 13.0436 195.965 13.263C196.023 13.4788 196.092 13.6496 196.175 13.7755C196.257 13.9013 196.357 14.0344 196.475 14.1747C196.597 14.3113 196.736 14.4138 196.894 14.4822C197.055 14.5505 197.241 14.608 197.452 14.6548Z" fill="#045599"/>
<path d="M209.217 5.65103L213.188 13.3493L213.188 4.12972L215.469 4.12972L215.469 14.9137C215.469 16.1905 214.957 16.8289 213.934 16.8289C213.462 16.8289 213.063 16.7066 212.737 16.462C212.415 16.2175 212.095 15.7877 211.777 15.1727L207.811 7.44746L207.811 16.6994L205.53 16.6994L205.53 5.90997C205.53 4.63682 206.042 4.00024 207.065 4.00024C207.512 4.00024 207.906 4.12792 208.246 4.38327C208.585 4.63502 208.909 5.05761 209.217 5.65103Z" fill="#045599"/>
<path d="M93.7304 26.5443C93.3685 26.5443 92.9725 26.5731 92.5425 26.6306L92.5425 35.1111C92.9475 35.1722 93.3434 35.2028 93.7304 35.2028C94.1927 35.2028 94.5994 35.1615 94.9506 35.0787C95.3054 34.996 95.5992 34.8989 95.8322 34.7874C96.0687 34.6723 96.2658 34.4961 96.4235 34.2587C96.5847 34.0214 96.7066 33.8092 96.789 33.6222C96.8714 33.4315 96.9323 33.1546 96.9717 32.7914C97.0147 32.4281 97.0398 32.1296 97.047 31.8959C97.0542 31.6621 97.0577 31.3204 97.0577 30.8709C97.0577 30.4213 97.0542 30.0796 97.047 29.8459C97.0398 29.6121 97.0147 29.3154 96.9717 28.9557C96.9323 28.5925 96.8714 28.3156 96.789 28.1249C96.7066 27.9343 96.5847 27.7221 96.4235 27.4884C96.2658 27.251 96.0687 27.0766 95.8322 26.9651C95.5992 26.85 95.3054 26.7511 94.9506 26.6684C94.5994 26.5857 94.1927 26.5443 93.7304 26.5443ZM90 36.9399L90 24.8126C91.2327 24.5752 92.5927 24.4565 94.0798 24.4565C94.5995 24.4565 95.0743 24.4835 95.5043 24.5375C95.9343 24.5914 96.3213 24.6705 96.6653 24.7748C97.0129 24.8755 97.3229 25.0086 97.5953 25.174C97.8712 25.3395 98.1113 25.5229 98.3156 25.7243C98.5198 25.9257 98.6954 26.1649 98.8423 26.4418C98.9928 26.7187 99.1165 27.0082 99.2132 27.3103C99.3136 27.6089 99.3924 27.9523 99.4497 28.3407C99.5071 28.7292 99.5465 29.123 99.568 29.5222C99.5931 29.9214 99.6056 30.3709 99.6056 30.8709C99.6056 31.3708 99.5931 31.8203 99.568 32.2195C99.5465 32.6187 99.5071 33.0126 99.4497 33.401C99.3924 33.7894 99.3136 34.1347 99.2132 34.4368C99.1165 34.7353 98.9928 35.023 98.8423 35.2999C98.6954 35.5768 98.5198 35.816 98.3156 36.0174C98.1113 36.2188 97.8712 36.4022 97.5953 36.5677C97.3229 36.7331 97.0129 36.868 96.6653 36.9723C96.3213 37.073 95.9343 37.1503 95.5043 37.2042C95.0743 37.2582 94.5995 37.2852 94.0798 37.2852C92.5998 37.2852 91.2399 37.1701 90 36.9399Z" fill="#045599"/>
<path d="M101.969 37.1557L101.969 24.586L104.516 24.586L104.516 37.1557L101.969 37.1557Z" fill="#045599"/>
<path d="M111.882 32.0901L111.882 30.121L116.332 30.121L116.332 34.8306C116.332 35.0859 116.309 35.3179 116.263 35.5265C116.216 35.7351 116.155 35.9185 116.08 36.0768C116.005 36.2314 115.901 36.3717 115.768 36.4975C115.635 36.6198 115.499 36.7241 115.359 36.8104C115.223 36.8932 115.051 36.9651 114.843 37.0262C114.639 37.0838 114.444 37.1287 114.258 37.1611C114.075 37.1971 113.849 37.224 113.58 37.242C113.312 37.26 113.066 37.2708 112.844 37.2744C112.625 37.2816 112.36 37.2852 112.048 37.2852C111.453 37.2852 110.921 37.2438 110.452 37.1611C109.982 37.0784 109.565 36.9579 109.199 36.7996C108.837 36.6378 108.524 36.4256 108.259 36.1631C107.997 35.9005 107.775 35.6038 107.592 35.2729C107.413 34.9385 107.268 34.5447 107.157 34.0915C107.049 33.6347 106.972 33.1492 106.926 32.6349C106.879 32.117 106.856 31.529 106.856 30.8709C106.856 30.2055 106.879 29.6139 106.926 29.096C106.972 28.5745 107.049 28.0854 107.157 27.6286C107.268 27.1719 107.413 26.7781 107.592 26.4472C107.775 26.1163 107.997 25.8214 108.259 25.5625C108.524 25.3035 108.839 25.0949 109.205 24.9367C109.57 24.7784 109.986 24.6597 110.452 24.5806C110.921 24.4979 111.453 24.4565 112.048 24.4565C113.521 24.4565 114.856 24.5806 116.053 24.8288L115.833 26.7978C114.876 26.6504 113.77 26.5767 112.516 26.5767C112.219 26.5767 111.946 26.5928 111.699 26.6252C111.452 26.6576 111.231 26.7133 111.038 26.7925C110.848 26.868 110.676 26.9489 110.522 27.0352C110.371 27.1179 110.242 27.233 110.135 27.3805C110.027 27.5279 109.932 27.6646 109.85 27.7905C109.771 27.9164 109.706 28.0854 109.656 28.2976C109.61 28.5062 109.57 28.6896 109.538 28.8478C109.509 29.0061 109.488 29.2165 109.474 29.479C109.463 29.7416 109.456 29.9645 109.452 30.148C109.448 30.3278 109.447 30.5688 109.447 30.8709C109.447 31.1766 109.448 31.4211 109.452 31.6045C109.456 31.7844 109.463 32.0073 109.474 32.2735C109.488 32.536 109.509 32.7464 109.538 32.9047C109.57 33.0629 109.61 33.2481 109.656 33.4603C109.706 33.6689 109.771 33.8361 109.85 33.962C109.929 34.0843 110.022 34.221 110.129 34.372C110.24 34.5195 110.371 34.6346 110.522 34.7173C110.672 34.8 110.842 34.8809 111.032 34.96C111.226 35.0356 111.444 35.0895 111.688 35.1219C111.935 35.1543 112.208 35.1704 112.505 35.1704C112.824 35.1704 113.08 35.1489 113.274 35.1057C113.471 35.0589 113.616 34.9834 113.709 34.8791C113.802 34.7748 113.862 34.6651 113.887 34.55C113.915 34.435 113.93 34.2767 113.93 34.0753L113.93 32.0901L111.882 32.0901Z" fill="#045599"/>
<path d="M118.765 37.1557L118.765 24.586L121.312 24.586L121.312 37.1557L118.765 37.1557Z" fill="#045599"/>
<path d="M131.789 24.586L131.789 26.6468L128.709 26.6468L128.709 37.1557L126.156 37.1557L126.156 26.6468L123.092 26.6468L123.092 24.586L131.789 24.586Z" fill="#045599"/>
<path d="M134.14 37.1557L131.517 37.1557L135.242 26.2098C135.45 25.6056 135.722 25.1632 136.059 24.8827C136.396 24.5986 136.81 24.4565 137.3 24.4565C138.268 24.4565 138.949 25.041 139.343 26.2098L143.004 37.1557L140.305 37.1557L139.348 34.0429L135.075 34.0429L134.14 37.1557ZM135.661 32.0847L138.752 32.0847L137.193 27.0028L135.661 32.0847Z" fill="#045599"/>
<path d="M152.165 35.1165L152.165 37.1017C150.814 37.1593 149.746 37.1881 148.961 37.1881C148.574 37.1881 148.254 37.1827 147.999 37.1719C147.748 37.1647 147.455 37.1395 147.118 37.0964C146.781 37.0496 146.505 36.9867 146.29 36.9075C146.075 36.8284 145.851 36.7133 145.618 36.5623C145.385 36.4112 145.202 36.2296 145.07 36.0174C144.937 35.8016 144.828 35.5337 144.742 35.2136C144.656 34.8935 144.613 34.5285 144.613 34.1185L144.613 24.586L147.161 24.586L147.161 33.4064C147.161 33.7768 147.18 34.0645 147.22 34.2695C147.259 34.4745 147.345 34.6454 147.478 34.782C147.61 34.9187 147.786 35.0086 148.005 35.0518C148.223 35.0949 148.526 35.1165 148.913 35.1165L152.165 35.1165Z" fill="#045599"/>
<path d="M165.973 24.6454L165.973 26.6252L162.517 26.6252C162.13 26.6252 161.825 26.6468 161.603 26.69C161.384 26.7331 161.209 26.823 161.076 26.9597C160.944 27.0964 160.858 27.2672 160.818 27.4722C160.779 27.6736 160.759 27.9577 160.759 28.3246L160.759 29.7488L165.737 29.7488L165.737 31.7772L160.759 31.7772L160.759 33.4064C160.759 33.6509 160.766 33.8559 160.781 34.0214C160.798 34.1832 160.833 34.3325 160.883 34.4691C160.933 34.6022 160.996 34.7083 161.071 34.7874C161.15 34.8629 161.257 34.9277 161.393 34.9816C161.53 35.0356 161.685 35.0715 161.861 35.0895C162.04 35.1075 162.259 35.1165 162.517 35.1165L165.973 35.1165L165.973 37.091C164.651 37.1557 163.517 37.1881 162.571 37.1881C162.184 37.1881 161.863 37.1827 161.608 37.1719C161.358 37.1647 161.064 37.1395 160.727 37.0964C160.39 37.0496 160.114 36.9867 159.899 36.9075C159.684 36.8284 159.46 36.7133 159.227 36.5623C158.994 36.4112 158.811 36.2296 158.679 36.0174C158.546 35.8016 158.437 35.5337 158.351 35.2136C158.265 34.8935 158.222 34.5285 158.222 34.1185L158.222 27.6178C158.222 27.2078 158.265 26.8428 158.351 26.5227C158.437 26.2026 158.546 25.9365 158.679 25.7243C158.811 25.5085 158.994 25.3269 159.227 25.1794C159.464 25.0284 159.688 24.9133 159.899 24.8342C160.114 24.7515 160.39 24.6885 160.727 24.6454C161.064 24.6022 161.358 24.577 161.608 24.5698C161.859 24.559 162.18 24.5536 162.571 24.5536C163.613 24.5536 164.747 24.5842 165.973 24.6454Z" fill="#045599"/>
<path d="M173.263 28.6428L175.768 24.586L178.514 24.586L174.628 30.6874L178.751 37.1557L175.821 37.1557L173.15 32.8453L170.554 37.1557L167.732 37.1557L171.806 30.7576L167.882 24.586L170.79 24.586L173.263 28.6428Z" fill="#045599"/>
<path d="M187.805 34.9331L188.036 36.9075C187.104 37.1593 186.013 37.2852 184.763 37.2852C184.067 37.2852 183.456 37.2312 182.93 37.1233C182.406 37.0154 181.951 36.8446 181.564 36.6108C181.181 36.3735 180.862 36.0893 180.608 35.7585C180.353 35.424 180.149 35.0086 179.995 34.5123C179.841 34.016 179.731 33.4783 179.667 32.8993C179.606 32.3202 179.575 31.6441 179.575 30.8709C179.575 30.2954 179.592 29.7757 179.624 29.3118C179.66 28.8478 179.719 28.4073 179.801 27.9901C179.884 27.5693 179.989 27.1989 180.118 26.8788C180.251 26.5551 180.414 26.2584 180.608 25.9886C180.805 25.7189 181.034 25.4923 181.296 25.3089C181.557 25.1219 181.858 24.9636 182.199 24.8342C182.539 24.7047 182.921 24.6094 183.344 24.5483C183.77 24.4871 184.243 24.4565 184.763 24.4565C186.002 24.4565 187.094 24.5842 188.036 24.8396L187.81 26.8086C186.932 26.6648 186.072 26.5928 185.23 26.5928C184.933 26.5928 184.66 26.609 184.413 26.6414C184.166 26.6738 183.946 26.7295 183.752 26.8086C183.562 26.8842 183.392 26.9633 183.241 27.046C183.091 27.1287 182.96 27.2438 182.849 27.3913C182.741 27.5387 182.648 27.6754 182.569 27.8013C182.491 27.9235 182.426 28.0908 182.376 28.303C182.329 28.5116 182.29 28.695 182.258 28.8532C182.229 29.0079 182.208 29.2183 182.193 29.4844C182.182 29.747 182.175 29.9681 182.172 30.148C182.168 30.3242 182.166 30.5652 182.166 30.8709C182.166 31.3168 182.17 31.6603 182.177 31.9012C182.184 32.1422 182.208 32.4407 182.247 32.7968C182.286 33.1492 182.344 33.4208 182.419 33.6114C182.498 33.7984 182.611 34.007 182.758 34.2372C182.905 34.4637 183.086 34.6328 183.301 34.7443C183.516 34.8557 183.784 34.9511 184.107 35.0302C184.433 35.1093 184.807 35.1489 185.23 35.1489C186.087 35.1489 186.945 35.0769 187.805 34.9331Z" fill="#045599"/>
<path d="M197.075 29.6894L197.075 24.586L199.634 24.586L199.634 37.1557L197.075 37.1557L197.075 31.7772L192.56 31.7772L192.56 37.1557L190.012 37.1557L190.012 24.586L192.56 24.586L192.56 29.6894L197.075 29.6894Z" fill="#045599"/>
<path d="M204.053 37.1557L201.43 37.1557L205.155 26.2098C205.363 25.6056 205.635 25.1632 205.972 24.8827C206.309 24.5986 206.723 24.4565 207.214 24.4565C208.182 24.4565 208.862 25.041 209.257 26.2098L212.917 37.1557L210.219 37.1557L209.262 34.0429L204.989 34.0429L204.053 37.1557ZM205.575 32.0847L208.665 32.0847L207.106 27.0028L205.575 32.0847Z" fill="#045599"/>
<path d="M218.257 26.1073L222.234 33.8056L222.234 24.586L224.519 24.586L224.519 35.37C224.519 36.6468 224.007 37.2852 222.982 37.2852C222.509 37.2852 222.109 37.1629 221.783 36.9183C221.46 36.6738 221.14 36.244 220.821 35.629L216.848 27.9038L216.848 37.1557L214.564 37.1557L214.564 26.3663C214.564 25.0931 215.076 24.4565 216.101 24.4565C216.549 24.4565 216.943 24.5842 217.284 24.8396C217.624 25.0913 217.949 25.5139 218.257 26.1073Z" fill="#045599"/>
<path d="M231.903 32.0901L231.903 30.121L236.354 30.121L236.354 34.8306C236.354 35.0859 236.331 35.3179 236.284 35.5265C236.238 35.7351 236.177 35.9185 236.102 36.0768C236.026 36.2314 235.922 36.3717 235.79 36.4975C235.657 36.6198 235.521 36.7241 235.381 36.8104C235.245 36.8932 235.073 36.9651 234.865 37.0262C234.661 37.0838 234.466 37.1287 234.279 37.1611C234.097 37.1971 233.871 37.224 233.602 37.242C233.333 37.26 233.088 37.2708 232.866 37.2744C232.647 37.2816 232.382 37.2852 232.07 37.2852C231.475 37.2852 230.943 37.2438 230.474 37.1611C230.004 37.0784 229.587 36.9579 229.221 36.7996C228.859 36.6378 228.546 36.4256 228.28 36.1631C228.019 35.9005 227.797 35.6038 227.614 35.2729C227.435 34.9385 227.29 34.5447 227.179 34.0915C227.071 33.6347 226.994 33.1492 226.947 32.6349C226.901 32.117 226.878 31.529 226.878 30.8709C226.878 30.2055 226.901 29.6139 226.947 29.096C226.994 28.5745 227.071 28.0854 227.179 27.6286C227.29 27.1719 227.435 26.7781 227.614 26.4472C227.797 26.1163 228.019 25.8214 228.28 25.5625C228.546 25.3035 228.861 25.0949 229.227 24.9367C229.592 24.7784 230.008 24.6597 230.474 24.5806C230.943 24.4979 231.475 24.4565 232.07 24.4565C233.543 24.4565 234.878 24.5806 236.075 24.8288L235.854 26.7978C234.897 26.6504 233.792 26.5767 232.538 26.5767C232.24 26.5767 231.968 26.5928 231.721 26.6252C231.473 26.6576 231.253 26.7133 231.06 26.7925C230.87 26.868 230.698 26.9489 230.544 27.0352C230.393 27.1179 230.264 27.233 230.156 27.3805C230.049 27.5279 229.954 27.6646 229.872 27.7905C229.793 27.9164 229.728 28.0854 229.678 28.2976C229.631 28.5062 229.592 28.6896 229.56 28.8478C229.531 29.0061 229.51 29.2165 229.495 29.479C229.485 29.7416 229.477 29.9645 229.474 30.148C229.47 30.3278 229.468 30.5688 229.468 30.8709C229.468 31.1766 229.47 31.4211 229.474 31.6045C229.477 31.7844 229.485 32.0073 229.495 32.2735C229.51 32.536 229.531 32.7464 229.56 32.9047C229.592 33.0629 229.631 33.2481 229.678 33.4603C229.728 33.6689 229.793 33.8361 229.872 33.962C229.95 34.0843 230.044 34.221 230.151 34.372C230.262 34.5195 230.393 34.6346 230.544 34.7173C230.694 34.8 230.864 34.8809 231.054 34.96C231.248 35.0356 231.466 35.0895 231.71 35.1219C231.957 35.1543 232.23 35.1704 232.527 35.1704C232.846 35.1704 233.102 35.1489 233.296 35.1057C233.493 35.0589 233.638 34.9834 233.731 34.8791C233.824 34.7748 233.883 34.6651 233.908 34.55C233.937 34.435 233.951 34.2767 233.951 34.0753L233.951 32.0901L231.903 32.0901Z" fill="#045599"/>
<path d="M246.489 24.6454L246.489 26.6252L243.033 26.6252C242.646 26.6252 242.341 26.6468 242.119 26.69C241.9 26.7331 241.725 26.823 241.592 26.9597C241.46 27.0964 241.374 27.2672 241.334 27.4722C241.295 27.6736 241.275 27.9577 241.275 28.3246L241.275 29.7488L246.253 29.7488L246.253 31.7772L241.275 31.7772L241.275 33.4064C241.275 33.6509 241.282 33.8559 241.297 34.0214C241.315 34.1832 241.349 34.3325 241.399 34.4691C241.449 34.6022 241.512 34.7083 241.587 34.7874C241.666 34.8629 241.773 34.9277 241.909 34.9816C242.046 35.0356 242.201 35.0715 242.377 35.0895C242.556 35.1075 242.775 35.1165 243.033 35.1165L246.489 35.1165L246.489 37.091C245.167 37.1557 244.033 37.1881 243.087 37.1881C242.7 37.1881 242.379 37.1827 242.124 37.1719C241.874 37.1647 241.58 37.1395 241.243 37.0964C240.906 37.0496 240.63 36.9867 240.415 36.9075C240.2 36.8284 239.976 36.7133 239.743 36.5623C239.51 36.4112 239.327 36.2296 239.195 36.0174C239.062 35.8016 238.953 35.5337 238.867 35.2136C238.781 34.8935 238.738 34.5285 238.738 34.1185L238.738 27.6178C238.738 27.2078 238.781 26.8428 238.867 26.5227C238.953 26.2026 239.062 25.9365 239.195 25.7243C239.327 25.5085 239.51 25.3269 239.743 25.1794C239.98 25.0284 240.204 24.9133 240.415 24.8342C240.63 24.7515 240.906 24.6885 241.243 24.6454C241.58 24.6022 241.874 24.577 242.124 24.5698C242.375 24.559 242.696 24.5536 243.087 24.5536C244.129 24.5536 245.264 24.5842 246.489 24.6454Z" fill="#045599"/>
</svg>
